<?xml version="1.0" encoding="UTF-8"?>
<svg id="Layer_1" data-name="Layer 1" xmlns="http://www.w3.org/2000/svg" xmlns:xlink="http://www.w3.org/1999/xlink" viewBox="0 0 1024 1024">
  <defs>
    <style>
      .cls-1 {
        fill: url(#linear-gradient-2);
      }

      .cls-2 {
        fill: #fff;
      }

      .cls-3 {
        fill: url(#linear-gradient);
      }
    </style>
    <linearGradient id="linear-gradient" x1="512" y1="167.47" x2="512" y2="931.78" gradientUnits="userSpaceOnUse">
      <stop offset="0" stop-color="#316cff"/>
      <stop offset="1" stop-color="#09006e"/>
    </linearGradient>
    <linearGradient id="linear-gradient-2" x1="468.63" y1="167.47" x2="468.63" y2="931.78" xlink:href="#linear-gradient"/>
  </defs>
  <rect class="cls-2" x="0" y="0" width="1024" height="1024"/>
  <g>
    <path class="cls-3" d="M791.19,842.69c-18.69,18.69-39,35.27-60.13,49.4-46.32,30.88-97.83,51.19-150.81,60.13-34.45,6.18-69.39,7.64-104.17,4.39-51.72-4.67-102.62-19.47-149.47-44.32-18.06-9.58-21.74-33.93-7.29-48.38l80.87-80.87c8.46-8.46,21.07-11.02,32.27-6.8,16.77,6.32,34.17,10.46,51.74,12.5,35.1,4.23,71.18.33,104.82-11.86,6.34-2.28,12.84-4.71,19.01-7.8,23.4-10.89,45.34-25.84,64.52-45.18,42.9-42.9,65.01-98.97,66.3-155.2.81-35.1-6.5-70.53-21.94-102.87-10.73-22.75-25.51-44.04-44.37-62.89-18.85-18.85-40.14-33.64-63.06-44.37-32.34-15.6-67.61-22.91-102.87-21.94-56.23,1.14-112.3,23.24-155.2,66.31-24.38,24.38-42.09,52.98-52.98,83.53-12.19,33.48-16.25,69.56-11.86,104.66,2.15,17.45,6.41,34.8,12.71,51.56,4.21,11.2,1.64,23.79-6.82,32.25l-81.09,81.09c-14.45,14.45-38.8,10.77-48.38-7.29-24.92-46.95-39.63-97.86-44.3-149.48-3.25-34.78-1.79-69.88,4.23-104.17,13.33-77.19,50.05-151.3,109.7-210.94,104.5-104.5,252.87-138.3,385.64-101.25,63.38,17.55,123.19,51.35,173.08,101.25,49.89,49.89,83.53,109.7,101.08,173.08,37.05,132.77,3.25,280.99-101.25,385.48Z"/>
    <path class="cls-1" d="M576.1,737.07l-79.64-79.64c-3.46-3.46-5.41-8.16-5.41-13.05v-45.42c0-8.13-6.59-14.72-14.72-14.72h-45.59c-4.9,0-9.59-1.95-13.05-5.41l-79.57-79.57c-10.28-10.28-3-27.85,11.53-27.85l215.33-.06c21.52,0,38.97,17.44,38.97,38.96v215.23c0,14.54-17.57,21.81-27.85,11.54Z"/>
  </g>
</svg>