<?xml version="1.0" encoding="UTF-8"?>
<svg id="Layer_1" data-name="Layer 1" xmlns="http://www.w3.org/2000/svg" xmlns:xlink="http://www.w3.org/1999/xlink" viewBox="0 0 1524.59 399.47">
  <defs>
    <style>
      .cls-1 {
        fill: url(#linear-gradient-2);
      }

      .cls-2 {
        fill: #fff;
      }

      .cls-3 {
        fill: url(#linear-gradient);
      }
    </style>
    <linearGradient id="linear-gradient" x1="199.74" y1="-.45" x2="199.74" y2="386.06" gradientUnits="userSpaceOnUse">
      <stop offset="0" stop-color="#fff"/>
      <stop offset="1" stop-color="#9badf7"/>
    </linearGradient>
    <linearGradient id="linear-gradient-2" x1="177.8" y1="-.45" x2="177.8" y2="386.06" xlink:href="#linear-gradient"/>
  </defs>
  <g>
    <path class="cls-3" d="M340.92,341.01c-9.45,9.45-19.72,17.83-30.41,24.98-23.42,15.61-49.47,25.89-76.26,30.41-17.42,3.12-35.09,3.86-52.68,2.22-26.16-2.36-51.89-9.84-75.59-22.41-9.13-4.84-10.99-17.16-3.68-24.47l40.89-40.89c4.28-4.28,10.65-5.57,16.32-3.44,8.48,3.2,17.28,5.29,26.17,6.32,17.75,2.14,36,.16,53.01-6,3.21-1.15,6.49-2.38,9.62-3.95,11.83-5.51,22.93-13.07,32.63-22.85,21.7-21.7,32.87-50.05,33.53-78.48.41-17.75-3.29-35.67-11.09-52.02-5.42-11.51-12.9-22.27-22.44-31.8-9.53-9.53-20.3-17.01-31.89-22.44-16.35-7.89-34.19-11.59-52.02-11.09-28.44.58-56.79,11.75-78.48,33.53-12.33,12.33-21.29,26.79-26.79,42.24-6.16,16.93-8.22,35.17-6,52.93,1.09,8.82,3.24,17.6,6.43,26.07,2.13,5.66.83,12.03-3.45,16.31l-41.01,41.01c-7.31,7.31-19.62,5.45-24.47-3.69C10.66,269.75,3.21,244.01.85,217.9c-1.64-17.59-.9-35.34,2.14-52.68,6.74-39.04,25.31-76.51,55.47-106.67C111.31,5.71,186.34-11.39,253.48,7.35c32.05,8.88,62.29,25.97,87.52,51.2,25.23,25.23,42.24,55.47,51.12,87.52,18.74,67.14,1.64,142.09-51.2,194.94Z"/>
    <path class="cls-1" d="M232.15,287.59l-40.27-40.27c-1.75-1.75-2.73-4.13-2.73-6.6v-22.97c0-4.11-3.33-7.44-7.44-7.44h-23.06c-2.48,0-4.85-.98-6.6-2.73l-40.24-40.24c-5.2-5.2-1.52-14.08,5.83-14.08l108.89-.03c10.88,0,19.71,8.82,19.71,19.7v108.84c0,7.35-8.89,11.03-14.08,5.83Z"/>
  </g>
  <g>
    <path class="cls-2" d="M596.12,271.74l-12.82-34.87h-79.88l-12.55,34.84c-.69,1.93-2.52,3.21-4.57,3.21h-35.48c-3.43,0-5.78-3.45-4.53-6.64l74.81-190.88c.73-1.86,2.53-3.09,4.53-3.09h34.25c1.98,0,3.76,1.2,4.51,3.04l77.2,190.88c1.29,3.2-1.06,6.69-4.51,6.69h-36.4c-2.04,0-3.86-1.27-4.56-3.18ZM543.15,127.34l-26.16,71.77h52.6l-26.44-71.77Z"/>
    <path class="cls-2" d="M724.98,279.26c-21.83,0-39.43-6.39-52.81-19.17-13.38-12.78-20.08-29.61-20.08-50.5v-84.53c0-2.69,2.18-4.86,4.86-4.86h32.1c2.69,0,4.86,2.18,4.86,4.86v79.77c0,11.01,2.76,19.61,8.26,25.81,5.5,6.21,13.1,9.3,22.8,9.3s17.25-3.12,22.66-9.37c5.41-6.25,8.12-14.83,8.12-25.74v-79.77c0-2.69,2.18-4.86,4.86-4.86h32.1c2.69,0,4.86,2.18,4.86,4.86v84.53c0,20.89-6.62,37.72-19.86,50.5-13.25,12.78-30.82,19.17-52.74,19.17Z"/>
    <path class="cls-2" d="M907.51,119.37h8.85c2.69,0,4.86,2.18,4.86,4.86v29.72c0,2.69-2.18,4.86-4.86,4.86h-13.19c-11.74,0-20.17,2.78-25.25,8.32-5.08,5.55-7.62,14.67-7.62,27.35v75.57c0,2.69-2.18,4.86-4.86,4.86h-32.1c-2.69,0-4.86-2.18-4.86-4.86V124.2c0-2.21,1.79-3.99,3.99-3.99h19.99c1.65,0,3.12,1.01,3.72,2.54l6.42,16.48c10.64-13.24,25.6-19.86,44.9-19.86Z"/>
    <path class="cls-2" d="M1084.45,197.01c0,2.69-.11,5.35-.34,7.96s-2.39,4.35-4.88,4.35h-112.71c1.77,10.54,6,18.63,12.66,24.27,6.67,5.64,15.09,8.46,25.25,8.46,7.19,0,13.64-1.59,19.38-4.76,4.93-2.73,8.92-6.35,11.95-10.88.92-1.38,2.41-2.27,4.06-2.27h34.23c3.54,0,5.83,3.64,4.44,6.9-5.8,13.67-14.63,24.78-26.5,33.31-13.8,9.93-29.66,14.9-47.56,14.9-15.02,0-28.66-3.57-40.92-10.7-12.27-7.13-21.89-16.95-28.89-29.45-7-12.5-10.49-26.34-10.49-41.55s3.47-29.19,10.42-41.69c6.95-12.5,16.55-22.29,28.82-29.38,12.26-7.09,25.94-10.63,41.05-10.63s29.38,3.66,41.69,10.98c12.31,7.32,21.78,17.14,28.4,29.45,6.62,12.31,9.93,25.88,9.93,40.71ZM1004.43,151.54c-9.23,0-17.06,2.57-23.5,7.69-6.43,5.13-10.87,12.31-13.29,21.55h74.98c-2.89-9.42-7.63-16.65-14.2-21.69-6.58-5.03-14.58-7.55-24-7.55Z"/>
    <path class="cls-2" d="M1311.3,256.81c-15.67,14.97-35.44,22.45-59.32,22.45s-43.66-7.49-59.38-22.45c-15.72-14.97-23.57-34.11-23.57-57.42v-120.2c0-2.69,2.18-4.86,4.86-4.86h33.78c2.69,0,4.86,2.18,4.86,4.86v118.24c0,12.4,3.66,22.34,10.99,29.79,7.32,7.46,16.8,11.19,28.46,11.19s21.13-3.73,28.4-11.19c7.28-7.46,10.91-17.39,10.91-29.79v-118.24c0-2.69,2.18-4.86,4.86-4.86h33.78c2.69,0,4.86,2.18,4.86,4.86v120.2c0,23.32-7.84,42.46-23.5,57.42Z"/>
    <path class="cls-2" d="M1443.59,115.87c15.29,0,29.12,3.52,41.48,10.56,12.35,7.04,22.03,16.81,29.03,29.31,6.99,12.5,10.49,26.44,10.49,41.83s-3.5,29.35-10.49,41.9c-7,12.54-16.68,22.36-29.03,29.45-12.36,7.09-26.19,10.63-41.48,10.63s-29.84-4.34-42.53-13.01v53.75c0,2.69-2.18,4.86-4.86,4.86h-32.1c-2.69,0-4.86-2.18-4.86-4.86V124.05c0-2.12,1.72-3.85,3.85-3.85h21.34c1.45,0,2.78.82,3.43,2.11l6.07,12.02c13.9-12.31,30.45-18.47,49.66-18.47ZM1409.95,227.85c7.97,8.07,18.02,12.1,30.15,12.1s22.17-4.01,30.14-12.03c7.97-8.02,11.96-18.14,11.96-30.36s-3.99-22.34-11.96-30.36c-7.97-8.02-18.03-12.03-30.14-12.03s-22.18,4.03-30.15,12.1c-7.97,8.07-11.96,18.16-11.96,30.29s3.99,22.22,11.96,30.28Z"/>
  </g>
</svg>