<?xml version="1.0" encoding="UTF-8"?>
<svg id="Layer_1" data-name="Layer 1" xmlns="http://www.w3.org/2000/svg" xmlns:xlink="http://www.w3.org/1999/xlink" viewBox="0 0 1339.44 1339.43">
  <defs>
    <style>
      .cls-1 {
        fill: url(#linear-gradient-2);
      }

      .cls-2 {
        fill: url(#linear-gradient);
      }
    </style>
    <linearGradient id="linear-gradient" x1="669.72" y1="-1.5" x2="669.72" y2="1294.47" gradientUnits="userSpaceOnUse">
      <stop offset="0" stop-color="#fff"/>
      <stop offset="1" stop-color="#9badf7"/>
    </linearGradient>
    <linearGradient id="linear-gradient-2" x1="596.18" y1="-1.5" x2="596.18" y2="1294.47" xlink:href="#linear-gradient"/>
  </defs>
  <path class="cls-2" d="M1143.12,1143.41c-31.69,31.69-66.13,59.8-101.96,83.77-78.53,52.36-165.89,86.8-255.72,101.96-58.42,10.47-117.66,12.95-176.63,7.44-87.7-7.91-174-33.01-253.44-75.15-30.62-16.24-36.86-57.53-12.35-82.04l137.12-137.12c14.35-14.35,35.72-18.69,54.72-11.54,28.44,10.71,57.94,17.74,87.74,21.19,59.52,7.16,120.69.55,177.73-20.12,10.75-3.86,21.77-7.99,32.24-13.23,39.68-18.46,76.88-43.81,109.4-76.6,72.75-72.75,110.22-167.82,112.43-263.16,1.38-59.52-11.02-119.59-37.2-174.43-18.19-38.58-43.26-74.68-75.23-106.64-31.97-31.97-68.06-57.04-106.92-75.23-54.84-26.45-114.63-38.85-174.43-37.2-95.34,1.93-190.41,39.4-263.16,112.43-41.33,41.33-71.37,89.83-89.83,141.64-20.67,56.76-27.56,117.94-20.12,177.46,3.65,29.58,10.87,59.01,21.56,87.42,7.14,18.98,2.79,40.34-11.56,54.69l-137.49,137.49c-24.51,24.51-65.79,18.26-82.04-12.36C35.73,904.47,10.78,818.16,2.86,730.62c-5.51-58.97-3.03-118.49,7.16-176.63,22.6-130.89,84.87-256.54,186-357.67C373.21,19.13,624.8-38.18,849.93,24.65c107.47,29.76,208.87,87.08,293.47,171.67,84.6,84.6,141.64,186,171.4,293.47,62.83,225.13,5.51,476.44-171.67,653.62Z"/>
  <path class="cls-1" d="M778.41,964.31l-135.04-135.04c-5.87-5.87-9.17-13.83-9.17-22.13v-77.02c0-13.79-11.18-24.96-24.96-24.96h-77.3c-8.3,0-16.26-3.3-22.13-9.17l-134.92-134.92c-17.42-17.42-5.09-47.22,19.55-47.23l365.12-.1c36.49-.01,66.08,29.57,66.08,66.06v364.95c0,24.65-29.8,36.99-47.23,19.56Z"/>
</svg>